:version 1.10
:name ASF
:units
  mass 1
  length 1
  angle deg
:documentation
  ASF file generated by Kaydara
:root
  axis xyz
  order  tx ty tz rx ry rz
  position 0 0 0
  orientation 0 0 0
:bonedata
  begin
    id 1
    name RightUpLegDummy
    direction -0.718183 -0.695806 0.00816078
    length 4.904
    axis 0 0 0 xyz
  end
  begin
    id 2
    name RightUpLeg
    direction 3.53373e-006 -0.995788 0.0916898
    length 17.4976
    axis -3.49089 -0.000906625 0.000286804 xyz
    dof rx ry rz
  end
  begin
    id 3
    name RightLeg
    direction 0.00371092 -0.995096 -0.0988419
    length 16.5821
    axis 3.68512 0.0193738 -0.131023 xyz
    dof rx ry rz
  end
  begin
    id 4
    name RightFoot
    direction 0.00079151 -0.46099 0.887405
    length 3.77069
    axis 4.81691e-005 -0.120479 -0.188788 xyz
    dof rx ry rz
  end
  begin
    id 5
    name RightToes
    direction 0.00124746 -0.014064 0.9999
    length 3.85082
    axis 0.000481921 0.542163 -0.142578 xyz
    dof rx ry rz
  end
  begin
    id 6
    name SpineDummy
    direction 8.3039e-015 1 4.57515e-016
    length 4.6813
    axis 0 0 0 xyz
  end
  begin
    id 7
    name Spine
    direction -3.15643e-008 0.999988 0.00495137
    length 10.1015
    axis -0.001389 0.000121418 2.40972e-006 xyz
    dof rx ry rz
  end
  begin
    id 8
    name Spine1
    direction 0 0 0
    length 0
    axis -0.001389 0.000121451 1.30017e-006 xyz
    dof rx ry rz
  end
  begin
    id 9
    name HEadDummy
    direction -1.99912e-008 0.999999 0.00127422
    length 3.43865
    axis -0.001389 0.000121451 1.30017e-006 xyz
  end
  begin
    id 10
    name HEad
    direction -0.0222688 0.980941 0.193023
    length 5.12695
    axis -0.001389 0.000121451 1.30017e-006 xyz
    dof rx ry rz
  end
  begin
    id 11
    name LeftShoulder1Dummy
    direction 0.998891 -0.0402509 -0.0244456
    length 3.5433
    axis -0.001389 0.000121451 1.30017e-006 xyz
  end
  begin
    id 12
    name LeftShoulder1
    direction 0.99951 -0.000327763 0.0313091
    length 4.05031
    axis -0.001389 0.000121451 1.30017e-006 xyz
    dof rx ry rz
  end
  begin
    id 13
    name LeftArm
    direction 0.998561 -0.00100056 -0.0536182
    length 10.3537
    axis -23.1894 0.134784 0.967509 xyz
    dof rx ry rz
  end
  begin
    id 14
    name LeftForeArm
    direction 0.998903 0.00866432 0.046012
    length 8.70632
    axis -9.91835 -0.06569 -0.177794 xyz
    dof rx ry rz
  end
  begin
    id 15
    name LeftHand
    direction 0.992938 -0.0411637 0.11126
    length 5.32135
    axis -0.00960232 -0.00340091 0.185173 xyz
    dof rx ry rz
  end
  begin
    id 16
    name RightShoulderDummy
    direction -0.998891 -0.0402509 -0.0244414
    length 3.5433
    axis -0.001389 0.000121451 1.30017e-006 xyz
  end
  begin
    id 17
    name RightShoulder
    direction -0.99951 -0.000327807 0.0313133
    length 4.05031
    axis 0.215806 0.000203643 -0.0068026 xyz
    dof rx ry rz
  end
  begin
    id 18
    name RightArm
    direction -0.998573 -0.000999564 -0.053403
    length 10.3947
    axis -23.2009 -0.134239 -0.964101 xyz
    dof rx ry rz
  end
  begin
    id 19
    name RightForeArm
    direction -0.998898 0.00868028 0.0461306
    length 8.68355
    axis -9.92322 0.0658061 0.178868 xyz
    dof rx ry rz
  end
  begin
    id 20
    name RightHand
    direction -0.992843 -0.0414603 0.112003
    length 5.28593
    axis -0.00960638 0.00330671 -0.185228 xyz
    dof rx ry rz
  end
  begin
    id 21
    name LeftUpLegDummy
    direction 0.718183 -0.695806 0.00816078
    length 4.904
    axis 0 0 0 xyz
  end
  begin
    id 22
    name LeftUpLeg
    direction -6.81752e-006 -0.995793 0.0916337
    length 17.4976
    axis -3.48766 0.00143442 -0.000524262 xyz
    dof rx ry rz
  end
  begin
    id 23
    name LeftLeg
    direction -0.00601358 -0.995091 -0.0987824
    length 16.5821
    axis 3.68178 -0.00654042 -0.000285133 xyz
    dof rx ry rz
  end
  begin
    id 24
    name LeftFoot
    direction -0.00417578 -0.460984 0.887399
    length 3.77069
    axis 1.87233e-006 4.66016e-005 -8.6538e-006 xyz
    dof rx ry rz
  end
  begin
    id 25
    name LeftToes
    direction 0.00818058 -0.00485161 0.999955
    length 3.85048
    axis 1.06247e-005 4.65869e-005 -8.65513e-006 xyz
    dof rx ry rz
  end
:hierarchy
  begin
    root RightUpLegDummy SpineDummy LeftUpLegDummy
    RightUpLegDummy RightUpLeg
    RightUpLeg RightLeg
    RightLeg RightFoot
    RightFoot RightToes
    SpineDummy Spine
    Spine Spine1
    Spine1 HEadDummy LeftShoulder1Dummy RightShoulderDummy
    HEadDummy HEad
    LeftShoulder1Dummy LeftShoulder1
    LeftShoulder1 LeftArm
    LeftArm LeftForeArm
    LeftForeArm LeftHand
    RightShoulderDummy RightShoulder
    RightShoulder RightArm
    RightArm RightForeArm
    RightForeArm RightHand
    LeftUpLegDummy LeftUpLeg
    LeftUpLeg LeftLeg
    LeftLeg LeftFoot
    LeftFoot LeftToes
  end

:SAMPLES-PER-SECOND 30
:FRAME-RANGE 1-3549
:FULLY-SPECIFIED
:DEGREES
1
root  -68.8523 40.0636 4.59574 10.7856 87.5882 9.91615
RightUpLeg  1.5605 -5.95902 -4.18916
RightLeg  0.157542 -10.3022 0.562554
RightFoot  -2.36676 -0.49621 6.09583
RightToes  -1.11029e-010 1.2921e-014 -6.02303e-014
Spine  2.14358 1.99007 5.67419
Spine1  0.150854 3.0563 -4.91602
HEad  -0.117409 -1.18481 -1.94039
LeftShoulder1  1.30822 0.270256 -34.2316
LeftArm  24.9077 4.01486 -33.4731
LeftForeArm  -0.76863 -11.3232 -15.0745
LeftHand  0.266521 -1.09117 -4.65637
RightShoulder  9.16954 11.2463 54.321
RightArm  24.9727 3.53216 14.3682
RightForeArm  15.1093 2.49985 17.9426
RightHand  0.580347 5.56451 5.67808
LeftUpLeg  -1.48542 8.0996 6.08439
LeftLeg  -0.18271 2.70189 -1.51577
LeftFoot  1.3238 0.83255 -7.48586
LeftToes  -1.9349e-011 -1.19469e-011 -2.02219e-012
2
root  -68.8573 40.0636 4.60231 10.1695 87.485 9.22094
RightUpLeg  1.43048 -5.90919 -4.13572
RightLeg  0.184294 -10.2284 0.535524
RightFoot  -2.33602 -0.486526 5.94525
RightToes  -1.11029e-010 1.2921e-014 -6.02303e-014
Spine  2.25905 1.98291 5.64887
Spine1  0.0401258 3.04333 -4.88741
HEad  -0.0039807 -2.18879 -1.57235
LeftShoulder1  1.30822 0.252947 -34.1692
LeftArm  23.9661 3.90382 -33.5325
LeftForeArm  0.257137 -11.0959 -15.1183
LeftHand  0.266411 -1.21891 -4.65774
RightShoulder  9.21418 11.3196 54.3156
RightArm  24.765 3.51277 14.2745
RightForeArm  15.3033 2.43286 17.9368
RightHand  0.581103 5.58106 5.7277
LeftUpLeg  -1.53311 8.09855 6.10171
LeftLeg  -0.23235 2.81118 -1.51498
LeftFoot  1.32317 0.837448 -7.56263
LeftToes  -1.9349e-011 -1.19469e-011 -2.02219e-012
3
root  -68.86 40.0636 4.60739 9.97107 87.4197 8.94841
RightUpLeg  1.36068 -5.88465 -4.12013
RightLeg  0.138079 -10.2324 0.544637
RightFoot  -2.3114 -0.493479 6.05336
RightToes  -1.11029e-010 1.2921e-014 -6.02303e-014
Spine  2.37208 1.94588 5.66855
Spine1  -0.0808293 3.01463 -4.9436
HEad  0.197353 -2.97646 -1.48516
LeftShoulder1  1.31127 0.237587 -34.0748
LeftArm  25.1462 3.81226 -33.533
LeftForeArm  -0.776051 -11.5834 -14.9006
LeftHand  0.266612 -1.21386 -4.67133
RightShoulder  9.2086 11.3227 54.2736
RightArm  24.7324 3.5319 14.2909
RightForeArm  15.3255 2.35724 17.9563
RightHand  0.580993 5.62464 5.75205
LeftUpLeg  -1.60336 8.09853 6.10193
LeftLeg  -0.236087 2.86236 -1.51004
LeftFoot  1.31615 0.839252 -7.5909
LeftToes  -1.9349e-011 -1.19469e-011 -2.02219e-012
4
root  -68.8618 40.0636 4.61178 9.54566 87.3285 8.45801
RightUpLeg  1.2569 -5.85691 -4.08751
RightLeg  0.157042 -10.1774 0.532952
RightFoot  -2.31157 -0.48852 5.97625
RightToes  -1.11029e-010 1.2921e-014 -6.02303e-014
Spine  2.56214 1.92951 5.6393
Spine1  -0.296384 2.98391 -4.87984
HEad  0.368221 -3.5242 -1.36006
LeftShoulder1  1.3161 0.223763 -34.0685
LeftArm  25.4934 3.72576 -33.5212
LeftForeArm  -1.1117 -11.7741 -14.8055
LeftHand  0.266469 -1.26411 -4.66575
RightShoulder  9.19201 11.3101 54.2244
RightArm  24.28 3.53876 14.2696
RightForeArm  15.8281 2.09106 17.9726
RightHand  0.580505 5.58946 5.70327
LeftUpLeg  -1.6362 8.09799 6.11095
LeftLeg  -0.283713 2.98323 -1.5115
LeftFoot  1.34941 0.836845 -7.55317
LeftToes  -1.9349e-011 -1.19469e-011 -2.02219e-012
5
root  -68.8629 40.0636 4.61493 9.25074 87.1949 8.10314
RightUpLeg  1.14358 -5.82857 -4.06839
RightLeg  0.211013 -10.0834 0.504456
RightFoot  -2.32445 -0.487303 5.95732
RightToes  -1.11029e-010 1.2921e-014 -6.02303e-014
Spine  2.68431 1.92106 5.66711
Spine1  -0.381069 2.97949 -4.89126
HEad  0.484637 -3.89997 -1.27538
LeftShoulder1  1.32093 0.211371 -34.0494
LeftArm  25.6385 3.56904 -33.5407
LeftForeArm  -1.35479 -11.8468 -14.774
LeftHand  0.265921 -1.15894 -4.61881
RightShoulder  9.1888 11.3256 54.152
RightArm  24.2054 3.49959 14.2769
RightForeArm  15.7662 2.09741 17.9664
RightHand  0.58301 5.50073 5.76937
LeftUpLeg  -1.66409 8.09569 6.11463
LeftLeg  -0.306987 3.09154 -1.51139
LeftFoot  1.31752 0.845361 -7.68669
LeftToes  -1.9349e-011 -1.19469e-011 -2.02219e-012
6
root  -68.864 40.063 4.6195 9.17288 87.0643 7.99217
RightUpLeg  1.06928 -5.82181 -4.06483
RightLeg  0.240795 -9.97387 0.488694
RightFoot  -2.32199 -0.492132 6.03242
RightToes  -1.11029e-010 1.2921e-014 -6.02303e-014
Spine  2.85285 1.89046 5.64143
Spine1  -0.497735 2.94559 -4.86988
HEad  0.631978 -4.12974 -1.31705
LeftShoulder1  1.32398 0.200822 -34.0141
LeftArm  25.2798 3.47053 -33.5777
LeftForeArm  -0.984085 -11.7258 -14.8174
LeftHand  0.265442 -1.1946 -4.58781
RightShoulder  9.17746 11.3158 54.1224
RightArm  24.773 3.48509 14.2405
RightForeArm  15.3353 2.30382 17.9746
RightHand  0.581818 5.55289 5.74457
LeftUpLeg  -1.66322 8.17863 6.14959
LeftLeg  -0.293808 3.10832 -1.59242
LeftFoot  1.24564 0.837589 -7.65668
LeftToes  -1.9349e-011 -1.19469e-011 -2.02219e-012
7
root  -68.8643 40.0577 4.62121 8.69151 86.8562 7.47219
RightUpLeg  0.897056 -5.83959 -4.06459
RightLeg  0.445037 -9.68016 0.455377
RightFoot  -2.39844 -0.479131 5.91165
RightToes  -1.11029e-010 1.2921e-014 -6.02303e-014
Spine  3.05758 1.88916 5.64586
Spine1  -0.631861 2.94397 -4.84138
HEad  0.738442 -4.2473 -1.36704
LeftShoulder1  1.33077 0.183405 -34.0088
LeftArm  24.7536 3.42724 -33.6047
LeftForeArm  -0.505543 -11.6154 -14.8397
LeftHand  0.265759 -1.22784 -4.60345
RightShoulder  9.18208 11.3314 54.0943
RightArm  24.6783 3.48264 14.2149
RightForeArm  15.6295 2.2114 17.9796
RightHand  0.580139 5.67723 5.74553
LeftUpLeg  -1.72857 8.39672 6.27324
LeftLeg  -0.110231 3.05773 -1.79883
LeftFoot  1.0638 0.813148 -7.5353
LeftToes  -1.9349e-011 -1.19469e-011 -2.02219e-012
8
root  -68.8634 40.0469 4.61658 8.39067 86.6258 7.15126
RightUpLeg  0.703362 -5.89864 -4.09575
RightLeg  0.727253 -9.42763 0.427388
RightFoot  -2.54198 -0.476718 5.96436
RightToes  -1.11029e-010 1.2921e-014 -6.02303e-014
Spine  3.32358 1.87163 5.65643
Spine1  -0.803985 2.93506 -4.8503
HEad  0.839565 -4.22754 -1.37439
LeftShoulder1  1.33441 0.171657 -33.9773
LeftArm  25.7843 3.48283 -33.6039
LeftForeArm  -1.52912 -12.0528 -14.6392
LeftHand  0.26554 -1.16617 -4.57858
RightShoulder  9.1888 11.3471 54.0773
RightArm  24.7071 3.4802 14.2459
RightForeArm  15.478 2.20558 17.9919
RightHand  0.570392 5.56359 5.70914
LeftUpLeg  -1.97257 8.55247 6.33228
LeftLeg  0.502525 3.13071 -1.91264
LeftFoot  0.587459 0.790799 -7.59713
LeftToes  -1.9349e-011 -1.19469e-011 -2.02219e-012
9
root  -68.8597 40.0256 4.59797 7.42285 86.3062 6.17012
RightUpLeg  0.431479 -5.95933 -4.12207
RightLeg  1.18366 -8.95724 0.369056
RightFoot  -2.75944 -0.468601 5.98826
RightToes  -1.11029e-010 1.2921e-014 -6.02303e-014
Spine  3.55614 1.8761 5.7154
Spine1  -0.896898 2.95382 -4.85331
HEad  0.886924 -4.20437 -1.31778
LeftShoulder1  1.3342 0.162768 -33.9442
LeftArm  25.8794 3.49836 -33.6556
LeftForeArm  -1.62629 -12.1156 -14.6035
LeftHand  0.265353 -1.17922 -4.56408
RightShoulder  9.20621 11.3796 54.0621
RightArm  24.6069 3.51322 14.2467
RightForeArm  15.5836 2.13308 18.0001
RightHand  0.569496 5.55448 5.70499
LeftUpLeg  -2.37811 8.52154 6.31774
LeftLeg  1.44571 3.43017 -1.80996
LeftFoot  -0.0152962 0.754242 -7.59931
LeftToes  -1.9349e-011 -1.19469e-011 -2.02219e-012
10
root  -68.8363 40.0062 4.5689 5.6764 85.913 4.43535
RightUpLeg  0.28518 -5.97748 -4.0945
RightLeg  1.467 -8.55689 0.342819
RightFoot  -2.907 -0.471003 6.11213
RightToes  -1.11029e-010 1.2921e-014 -6.02303e-014
Spine  3.76984 1.89098 5.81736
Spine1  -0.986908 2.99033 -4.90147
HEad  1.04231 -3.95959 -1.34009
LeftShoulder1  1.33231 0.155133 -33.9181
LeftArm  25.681 3.61183 -33.7129
LeftForeArm  -1.46448 -12.0393 -14.6388
LeftHand  0.264489 -1.13116 -4.49518
RightShoulder  9.21271 11.3967 54.0392
RightArm  24.7338 3.52343 14.2433
RightForeArm  15.5746 2.13006 18.012
RightHand  0.570588 5.57968 5.71203
LeftUpLeg  -2.70481 8.50178 6.33846
LeftLeg  2.40328 3.78344 -1.65098
LeftFoot  -0.716097 0.71131 -7.59705
LeftToes  -1.9349e-011 -1.19469e-011 -2.02219e-012
11
root  -68.789 39.996 4.52958 4.60144 85.436 3.40535
RightUpLeg  0.307125 -5.98408 -4.11871
RightLeg  1.51529 -8.07535 0.31831
RightFoot  -2.9443 -0.471057 6.13662
RightToes  -1.11029e-010 1.2921e-014 -6.02303e-014
Spine  3.8943 1.90228 5.78603
Spine1  -1.00068 3.01359 -4.92628
HEad  1.22249 -3.7512 -1.2833
LeftShoulder1  1.32986 0.164151 -33.8866
LeftArm  25.3349 3.8249 -33.7123
LeftForeArm  -1.24977 -11.9236 -14.6923
LeftHand  0.26516 -1.16313 -4.53825
RightShoulder  9.24438 11.4461 54.0452
RightArm  24.8597 3.53108 14.2058
RightForeArm  15.6414 2.06602 18.0387
RightHand  0.568784 5.62683 5.56942
LeftUpLeg  -2.8484 8.53742 6.31271
LeftLeg  3.18829 4.30491 -1.53098
LeftFoot  -1.39957 0.646126 -7.32678
LeftToes  -1.9349e-011 -1.19469e-011 -2.02219e-012
12
root  -68.7225 39.9861 4.47103 3.73033 84.9275 2.57223
RightUpLeg  0.350664 -5.97236 -4.1607
RightLeg  1.54782 -7.57104 0.255212
RightFoot  -2.99773 -0.479088 6.29409
RightToes  -1.11029e-010 1.2921e-014 -6.02303e-014
Spine  3.99271 1.90699 5.71
Spine1  -1.05893 3.0228 -4.93767
HEad  1.45491 -3.54496 -1.18429
LeftShoulder1  1.32799 0.179564 -33.8806
LeftArm  25.1749 4.13626 -33.6642
LeftForeArm  -1.29689 -11.8857 -14.7169
LeftHand  0.265655 -1.11418 -4.555
RightShoulder  9.19824 11.3805 54.0142
RightArm  24.8118 3.60499 14.1942
RightForeArm  15.7601 1.94391 18.0683
RightHand  0.567618 5.62393 5.64515
LeftUpLeg  -2.95782 8.51142 6.24559
LeftLeg  3.97093 4.71089 -1.32228
LeftFoot  -2.27346 0.60864 -7.49734
LeftToes  -1.9349e-011 -1.19469e-011 -2.02219e-012
13
root  -68.6301 39.977 4.39203 2.90307 84.4204 1.79926
RightUpLeg  0.471922 -5.98164 -4.24475
RightLeg  1.53725 -7.0198 0.200006
RightFoot  -3.07513 -0.482312 6.38213
RightToes  -1.11029e-010 1.2921e-014 -6.02303e-014
Spine  4.01849 1.90322 5.61514
Spine1  -1.06764 3.0232 -4.95939
HEad  1.82634 -3.2277 -1.18582
LeftShoulder1  1.3272 0.182644 -33.8936
LeftArm  24.8526 4.44494 -33.5364
LeftForeArm  -1.13871 -11.734 -14.8009
LeftHand  0.266445 -1.06857 -4.58284
RightShoulder  9.18579 11.3626 54.0064
RightArm  24.7696 3.48219 14.1007
RightForeArm  15.7059 1.97628 18.0569
RightHand  0.552305 5.59661 5.49975
LeftUpLeg  -3.02246 8.59671 6.16318
LeftLeg  4.79758 5.1387 -1.13259
LeftFoot  -3.24789 0.567823 -7.74388
LeftToes  -1.9349e-011 -1.19469e-011 -2.02219e-012
